<svg xmlns="http://www.w3.org/2000/svg" width="49.43" height="41.66" viewBox="0 0 13.078 11.023">
  <g fill="#9bdbcd">
    <path d="M11.308 2.246a.05.05 0 01-.05-.05V.05a.05.05 0 11.1 0v2.146c0 .027-.023.05-.05.05z"/>
    <path d="M13.078 2.91v7.575a.532.532 0 01-.534.537H.537a.539.539 0 01-.534-.481C0 10.528 0 10.515 0 10.501V8.638c0-.013 0-.028.003-.042a.537.537 0 01.534-.494H7.75a.664.664 0 00.664-.665V5.71a.629.629 0 00-.63-.63H5.218c-.662 0-1.223.558-1.43 1.207-.028.092-.052.19-.065.285a.272.272 0 01-.268.233H1.156a.444.444 0 01-.444-.444V2.937a.734.734 0 01.733-.733h10.919a.707.707 0 01.701.6c.01.032.013.07.013.106z"/>
    <path d="M2.379 6.795h.254v.896h-.254z"/>
    <path d="M2.249 7.398h.167v.132h-.167zM2.858 1.942h.386v.251h-.386zM11.76 2.035h-.857a.146.146 0 01-.145-.156l.013-.241v-.003l.01-.161.027-.453.008-.143.021-.344.008-.127a.147.147 0 01.146-.137h.672a.147.147 0 01.146.138l.007.1.019.291.002.045.032.479.027.384.01.166a.148.148 0 01-.145.162zM1.569 8.051h1.812v.043H1.57zM3.728 2.834c0-.053.042-.098.098-.098.055 0 .098.042.098.098a.096.096 0 01-.098.098.098.098 0 01-.098-.098zM4.109 2.834a.098.098 0 11.196 0 .096.096 0 01-.098.098.098.098 0 01-.098-.098zM4.487 2.834c0-.053.043-.098.098-.098.056 0 .098.042.098.098a.096.096 0 01-.098.098.098.098 0 01-.098-.098z"/>
    <path d="M3.022 1.693h.063v.339h-.063z"/>
    <g transform="matrix(.26458 0 0 .26458 -15.468 -109.466)">
      <circle transform="rotate(-80.281 101.185 427.262)" class="st0" cx="101.19" cy="427.25" r="2.27"/>
    </g>

    <path d="M11.308 2.246a.05.05 0 01-.05-.05V.05a.05.05 0 11.1 0v2.146c0 .027-.023.05-.05.05z"/>
    <path d="M13.078 2.91v7.575a.532.532 0 01-.534.537H.537a.539.539 0 01-.534-.481C0 10.528 0 10.515 0 10.501V8.638c0-.013 0-.028.003-.042a.537.537 0 01.534-.494H7.75a.664.664 0 00.664-.665V5.71a.629.629 0 00-.63-.63H5.218c-.662 0-1.223.558-1.43 1.207-.028.092-.052.19-.065.285a.272.272 0 01-.268.233H1.156a.444.444 0 01-.444-.444V2.937a.734.734 0 01.733-.733h10.919a.707.707 0 01.701.6c.01.032.013.07.013.106z"/>
    <path d="M2.379 6.795h.254v.896h-.254z"/>
    <path d="M2.249 7.398h.167v.132h-.167zM2.858 1.942h.386v.251h-.386zM11.76 2.035h-.857a.146.146 0 01-.145-.156l.013-.241v-.003l.01-.161.027-.453.008-.143.021-.344.008-.127a.147.147 0 01.146-.137h.672a.147.147 0 01.146.138l.007.1.019.291.002.045.032.479.027.384.01.166a.148.148 0 01-.145.162zM1.569 8.051h1.812v.043H1.57zM3.728 2.834c0-.053.042-.098.098-.098.055 0 .098.042.098.098a.096.096 0 01-.098.098.098.098 0 01-.098-.098zM4.109 2.834a.098.098 0 11.196 0 .096.096 0 01-.098.098.098.098 0 01-.098-.098zM4.487 2.834c0-.053.043-.098.098-.098.056 0 .098.042.098.098a.096.096 0 01-.098.098.098.098 0 01-.098-.098z"/>
    <path d="M3.022 1.693h.063v.339h-.063z"/>
    <g transform="matrix(.26458 0 0 .26458 -15.468 -109.466)">
      <circle transform="rotate(-80.281 101.185 427.262)" class="st0" cx="101.19" cy="427.25" r="2.27"/>
    </g>
  </g>
</svg>
