<svg viewBox="0 0 176 176" xmlns="http://www.w3.org/2000/svg" fill-rule="evenodd" clip-rule="evenodd" stroke-linejoin="round" stroke-miterlimit="2"><g transform="translate(-436.88 -117.29)"><circle cx="524.69" cy="205.1" r="87.81"/><path d="M596.55 210.65c-1.41-7.42-5.03-13.5-10.75-18.07-7.59-6.07-16.52-8.05-26.55-5.9l-9.13-23.01.44-.17c1.16-.43 2.25-.84 3.36-1.16.55-.16 1.14-.25 1.78-.35.78-.12 1.59-.25 2.4-.52 1.73-.58 3.44-1.29 5.08-1.97l.14-.06c.43-.18.86-.36 1.29-.53 3.01-1.23 4.38-4.04 3.33-6.84-.49-1.3-1.43-2.32-2.65-2.86-1.35-.61-2.96-.6-4.55.01-2.62 1.02-5.34 2.07-7.99 3.19-.65.27-1.16.68-1.65 1.07l-.02.02c-.16.13-.32.25-.48.37-.29.21-.56.43-.82.65-.47.38-.91.75-1.36.96-1.79.84-3.6 1.6-5.52 2.42-.75.32-1.51.64-2.27.97-.6.26-.88.93-.63 1.54l5.61 13.98h-8.99c-10.44 0-21.24 0-31.85-.02-.23 0-.44-.02-.57-.05-1.01-1.74-1.97-3.52-2.98-5.4l-.08-.15c2.72-.13 4.43-1.82 4.59-4.57.03-.5.02-.98.01-1.44v-.03c0-.14-.01-.27-.01-.41-.04-3.52-1.85-5.3-5.37-5.31-1.33 0-2.69.01-4 .02h-.25c-2.87.03-5.85.05-8.75-.05-2.75-.1-4.46.35-5.55 1.46-1.26 1.28-1.44 3.2-1.31 5.69.14 2.84 1.99 4.61 4.82 4.64.72.01 1.43 0 2.15 0h.25c1.25 0 2.55-.01 3.81.03.09 0 .26.08.33.12 1.77 3.14 3.49 6.38 5.11 9.42.01.02.02.04.02.07-1.32 2.66-2.67 5.33-3.98 7.9l-.57 1.11c-8.34-2.69-17.01-1.93-24.43 2.14-7.55 4.13-12.97 11.27-14.88 19.57-1.89 8.2-.48 16.51 3.97 23.4 4.46 6.9 11.4 11.61 19.54 13.24 1.97.4 3.99.6 6 .6 6.32 0 12.59-2.01 17.67-5.65 6.72-4.82 11.15-12.13 12.5-20.6h3.31c2.23-.01 4.53-.01 6.79.03h.05c1.32 0 2.19-.56 2.72-1.76.69-1.55 1.44-3.1 2.16-4.6l.72-1.5c1.11-2.32 2.22-4.65 3.33-6.97 3.51-7.33 7.13-14.92 10.67-22.4.24-.51.32-.56.86-.54 1.01.05 2.02.05 2.99.04h.08c.73 0 1.49-.01 2.22.01.07 0 .15.02.22.03.91 2.11 1.77 4.26 2.61 6.34l.35.87c-7.16 4.22-12.25 10.76-14.34 18.47-2.02 7.43-1.15 15.51 2.39 22.17 3.38 6.35 8.96 11.3 15.7 13.95 6.76 2.65 14.25 2.81 21.08.44 14.09-4.9 22.6-19.53 19.83-34.05zm-41.89-13.07l8.13 20.08c.24.6.94.9 1.54.66l5.5-2.19a1.199 1.199 0 00.66-1.55l-8.1-20.06c6.49-1.87 17.98.29 23.85 11.03 2.84 5.2 3.47 11.2 1.77 16.91-1.7 5.69-5.49 10.36-10.67 13.14a22.28 22.28 0 01-10.55 2.65c-7.92 0-15.57-4.21-19.55-11.6-2.85-5.29-3.45-11.31-1.71-16.95 1.55-5.01 4.78-9.3 9.13-12.12zm-21.15-14.87l-11.73 24.37-13.22-24.37h24.95zm-37.65 15.95c3.68 2.24 7.73 8.78 8.28 13.37h-14.95l6.67-13.37zm-19.16 19.95c-.26.51-.11 1.14.35 1.49.2.15.46.23.76.23h26.29c-.93 6.47-6.37 14.29-15.16 16.99-9.3 2.85-19.53-.89-24.89-9.1-5.53-8.48-4.75-19.26 1.94-26.82 4.22-4.77 10.31-7.5 16.7-7.5 2.06 0 4.1.3 5.92.87l-11.91 23.84zm25.03-31.26l13.46 24.66h-2.43c-1.31-8.54-5.66-15.54-12.95-20.84l1.92-3.82z" fill="#fff" fill-rule="nonzero"/></g></svg>