<svg id="Layer_1" data-name="Layer 1" xmlns="http://www.w3.org/2000/svg" viewBox="0 0 841.89 595.28"><defs><style>.cls-1{fill:#c9e265;}</style></defs><title>8 green bottles standing on the wall-01</title><path class="cls-1" d="M74.6,406.66c.08-5-3.06-21.27-6.35-27.87s-6-18.83-7-27.65-1.2-25.09-1.16-27.34l-6.32-.1-6.32-.1c0,2.26-.74,18.51-2,27.29s-4.38,20.94-7.87,27.43S30.48,401,30.41,406l-1.09,71.1s-.54,6.54,3.9,11.12l18.06.27,18,.28c4.58-4.44,4.24-11,4.24-11Z"/><path d="M60.11,324.51a2.13,2.13,0,0,0,1.45-2h0v-.42a2,2,0,0,0,0-.24l0-1.27a3.31,3.31,0,0,0,0-.55v-.1a2.15,2.15,0,0,0-2.12-2.18h-.59L49,317.6a2.79,2.79,0,0,0-2.84,2.75l0,1.27a2.8,2.8,0,0,0,1.36,2.44c-.09,1.72-1.32,24.36-2.45,29.94l8.32.14,8.3.13C60.69,348.84,60.18,327.53,60.11,324.51Z"/><polygon points="74.69 406.66 74.69 406.66 52.55 406.32 52.55 406.32 30.44 405.99 29.59 461.75 73.84 462.42 74.69 406.66 74.69 406.66"/><path d="M815.3,535.52c-.12-1.57-2.47-2.86-4.17-4.32-1.37-1.19-7.32-2.56-10.79-2.49a5.4,5.4,0,0,0-1.91.29,12.83,12.83,0,0,1-8.23,0c-2.93-.8-32.76-9.66-44.54-13.17-5.44-1.62-9.33-2.07-12.32-1.81a13.21,13.21,0,0,0-7.68,3.16,17.11,17.11,0,0,1-6.61,3.09,29.63,29.63,0,0,1-3.95.68c-1.9.2-37.72-4.71-37.72-4.71-.46,0-1.24.25-1.62-.61a1.37,1.37,0,0,0-1.86-.58.92.92,0,0,0-.21.13,1.91,1.91,0,0,1-1.77.28c-.59-.13-.75-1-1.44-1.2a1.52,1.52,0,0,0-2.13.82l0,.06-1.26,5.74-1.29,5.9c0,1.38.9,1.54,1.59,1.69s1.22-.61,1.81-.48a1.9,1.9,0,0,1,1.49,1,1.38,1.38,0,0,0,1.86.59,1.2,1.2,0,0,0,.21-.13c.7-.62,1.3,0,1.73.12,0,0,34.58,10.53,36.23,11.51s6,3.64,8,7.81,5.4,7.85,17.58,9.59,43,6.17,46,6.67,5.7,1.56,7.45,3.49,10.29,4,12.44,3.35,4.83-.81,5.59-2.19l3.8-17.24h0l3.75-17.08h0Z"/><polygon class="cls-1" points="676.44 515.16 676.23 516.11 673.14 530.22 709.04 541.49 713.76 519.97 676.44 515.16"/><path class="cls-1" d="M156.32,418.2a4.11,4.11,0,0,0-2.56-3.63l-31.69-13.16a4.18,4.18,0,0,0-4.35.7c-5,4.28-9.78,11.5-14.41,22.56L92.24,451.16c-.49,1.18-.82,4.92,2.34,6.24l19.23,8,19.23,8c3.17,1.29,5.6-1.53,6.09-2.71L150.2,444.2C154.32,434.3,156.62,425,156.32,418.2Z"/><rect x="134.38" y="382.31" width="10.16" height="43.43" rx="1.68" transform="translate(-287.09 376.84) rotate(-67.31)"/><path d="M137.5,408.68l18.26,7.63a2,2,0,0,0,2.56-1.13l2.35-5.63a2,2,0,0,0-1-2.62l-18.26-7.63Z"/><path d="M188.63,492.71l-2.8-7.09c-2.94,1.16-91.74,19.2-100.18,22.53s-41.54,15.21-41.24,19.19L52,546.59l7.6,19.26c2.5,3.11,34.78-10.79,43.23-14.12s85.66-50.76,88.6-51.92Z"/><path class="cls-1" d="M197.63,496.55,195,490.11l-2.57-6.53a2.47,2.47,0,0,0-3.21-1.39L184.66,484a2.47,2.47,0,0,0-1.4,3.2l5.1,12.93c0,.05,0,.09.07.13a2.23,2.23,0,0,0,2.7,1.46l5.5-2.17A2.24,2.24,0,0,0,197.63,496.55Z"/><rect class="cls-1" x="65.82" y="510.74" width="30.36" height="48.84" transform="translate(-190.66 67.02) rotate(-21.52)"/><path d="M243.73,556c0-.1-.07-.19-.1-.27l-9-21.17c-3.37-7.85-7.51-14.39-11.51-18a3.35,3.35,0,0,0-3.52-.55l-25.36,10.75a3.38,3.38,0,0,0-2,2.89c-.3,5.24,1.15,12.05,4.92,20.89l9,21.16c.41.95,2.37,3.22,4.9,2.15l15.36-6.56,2.34-1a3.21,3.21,0,0,0,.75-.21h0l12.28-5.24C244.21,559.8,244.09,557.07,243.73,556Z"/><path class="cls-1" d="M222.62,514l-2.13-5a1.35,1.35,0,0,0-1.77-.71l-29.54,12.6a1.36,1.36,0,0,0-.71,1.77l2.14,5a1.35,1.35,0,0,0,1.77.71l14.74-6.29h0l14.59-6.23.08-.05.11,0A1.34,1.34,0,0,0,222.62,514Z"/><path class="cls-1" d="M806.74,403.9c-3.25-3.74-8.14-5.23-9.84-6s-3-1.5-3-3.49v-12.7H783v12.7c0,2-1.36,2.74-3,3.49s-6.61,2.3-9.83,6-5.26,10.46-5.26,16.19v66.25s.17,10.71,7.29,10.71h32.5c7.12,0,7.29-10.71,7.29-10.71V420.09C812,414.36,810,407.64,806.74,403.9Z"/><rect x="782.27" y="358.52" width="12.32" height="26.9" rx="2.79"/><path class="cls-1" d="M605.82,576.39l15.41,5.22c6.75,2.28,10.34-7.81,10.34-7.81l11.63-34.34c1.83-5.42,2.09-12.43.21-17s-6-7.57-7.39-8.84-2.36-2.39-1.72-4.27l4.07-12L628,493.81l-4.07,12c-.64,1.9-2.17,2.16-4,2.35s-7,.06-11.23,2.53-8.34,8.22-10.18,13.65L587,558.7s-3.28,10.2,3.47,12.49Z"/><path d="M633.68,483.44l6.28,2.13c1.44.49,2.38,1.55,2.09,2.39l-3.9,11.51c-.28.84-1.67,1.12-3.11.63L628.76,498c-1.43-.48-2.37-1.55-2.09-2.38l3.9-11.52C630.85,483.24,632.25,483,633.68,483.44Z"/><path d="M747.88,324.52,739.71,322c-1,3.36-46.85,93.21-49.8,102.88s-15.53,46.72-11.86,49.22l22,6.72,22,6.73c4.44,0,14.71-37.78,17.66-47.45S754.92,330.31,756,327Z"/><path class="cls-1" d="M757.62,319.4a1.15,1.15,0,0,0-.23-.1l-14.82-4.52a2.73,2.73,0,0,0-3.42,1.82l-1.61,5.26a2.75,2.75,0,0,0,1.82,3.42l7.4,2.25v0l7.45,2.27a2.49,2.49,0,0,0,3.22-1.31l.13-.41c0-.05,0-.09.05-.13l1.61-5.26s0-.06,0-.08l.13-.42A2.48,2.48,0,0,0,757.62,319.4Z"/><rect class="cls-1" x="694.67" y="417.08" width="33.41" height="54.03" transform="translate(80.54 996.65) rotate(-73.19)"/></svg>