<svg id="Layer_1" data-name="Layer 1" xmlns="http://www.w3.org/2000/svg" viewBox="0 0 841.89 595.28">
  <defs>
    <style>
      .cls-1,.cls-2{fill:#c9e265}.cls-2{stroke:#c9e265;stroke-miterlimit:10;stroke-width:2px}
    </style>
  </defs>
  <path class="cls-1" d="M51.28 488.49l18 .28c4.58-4.44 4.24-11 4.24-11l1.08-71.11c.08-5-3.06-21.27-6.35-27.87s-6-18.83-7-27.65-1.2-25.09-1.16-27.34l-6.32-.1-6.32-.1c0 2.26-.74 18.51-2 27.29s-4.38 20.94-7.87 27.43S30.48 401 30.41 406l-1.09 71.1s-.54 6.54 3.9 11.12z"/>
  <path class="cls-1" d="M51.28 488.49l18 .28c4.58-4.44 4.24-11 4.24-11l1.08-71.11c.08-5-3.06-21.27-6.35-27.87s-6-18.83-7-27.65-1.2-25.09-1.16-27.34l-6.32-.1z"/>
  <rect x="46.08" y="317.67" width="15.5" height="6.87" rx="2.8" transform="rotate(.87 53.818 322.304)"/>
  <path d="M53.78 324.55l5.6.08a2.14 2.14 0 002.18-2.11v-2.58a2.15 2.15 0 00-2.12-2.18l-5.6-.09z"/>
  <path d="M53.32 354.14l8.3.13c-1-5.85-1.52-30.13-1.52-30.13l-6.32-.1-6.32-.1S46.18 348.2 45 354z"/>
  <path d="M53.32 354.14l8.3.13c-1-5.85-1.52-30.13-1.52-30.13l-6.32-.1z"/>
  <path transform="rotate(.87 52.048 436.255)" d="M29.98 406.32h44.26v55.77H29.98z"/>
  <path transform="rotate(.87 63.244 436.17)" d="M52.1 406.49h22.14v55.77H52.1z"/>
  <path d="M811.55 552.6l3.75-17.08c-.12-1.57-2.47-2.86-4.17-4.32s-10.31-3.2-12.7-2.2-5.3.86-8.23.06-32.75-9.66-44.54-13.18-16.39-1.57-20 1.36-8.66 3.55-10.56 3.76-37.72-4.7-37.72-4.7c-.46 0-1.24.24-1.62-.61a1.38 1.38 0 00-2.07-.46 1.9 1.9 0 01-1.77.29c-.59-.13-.75-1-1.44-1.2s-1.62-.41-2.16.87l-1.26 5.74-1.29 5.9c0 1.38.9 1.54 1.59 1.69s1.22-.61 1.81-.48a1.88 1.88 0 011.49 1 1.38 1.38 0 002.07.46c.7-.62 1.3 0 1.73.12 0 0 34.58 10.53 36.23 11.51s6 3.64 8 7.81 5.4 7.85 17.58 9.59 43 6.17 46 6.67 5.7 1.56 7.45 3.49 10.29 4 12.44 3.35 4.83-.81 5.59-2.19z"/>
  <path d="M811.55 552.61l3.75-17.08c-.12-1.58-2.48-2.87-4.17-4.33s-10.31-3.2-12.7-2.2-5.3.85-8.23.05-32.76-9.66-44.54-13.17-16.39-1.58-20 1.35S717 520.8 715.1 521s-37.72-4.71-37.72-4.71c-.46 0-1.24.25-1.62-.61a1.38 1.38 0 00-2.07-.45 1.89 1.89 0 01-1.77.28c-.59-.13-.75-1-1.44-1.2s-1.62-.4-2.16.88l-1.26 5.74z"/>
  <path class="cls-2" d="M674.31 529.54l2.91-13.27 35.33 4.55-4.25 19.39-33.99-10.67z"/>
  <path class="cls-2" d="M710.43 530.47l2.12-9.65-35.33-4.55-1.44 6.6 34.65 7.6z"/>
  <path class="cls-1" d="M153.76 414.57a4.12 4.12 0 012.56 3.63c.3 6.75-2 16.1-6.12 26l-11.07 26.49c-.49 1.18-2.92 4-6.09 2.71l-19.23-8-19.23-8c-3.16-1.32-2.83-5.06-2.34-6.24l11.07-26.49c4.63-11.06 9.46-18.28 14.41-22.56a4.19 4.19 0 014.35-.7z"/>
  <path class="cls-1" d="M115.43 461.49a4.18 4.18 0 002.24 5.47l15.33 6.42c3.17 1.33 5.6-1.53 6.09-2.71l11.07-26.49c3.6-8.6 6.27-18.86 6.1-25.87a4.17 4.17 0 00-2.57-3.75l-12-5a4.18 4.18 0 00-5.47 2.25z"/>
  <rect x="134.38" y="382.28" width="10.16" height="43.43" rx="1.68" transform="rotate(-67.31 139.483 404.006)"/>
  <path d="M137.5 408.68l18.26 7.63a2 2 0 002.56-1.13l2.35-5.63a2 2 0 00-1-2.62l-18.26-7.63zM52 546.59l7.6 19.26c2.5 3.11 34.78-10.79 43.23-14.12s85.66-50.76 88.6-51.92l-2.8-7.1-2.8-7.09c-2.94 1.16-91.74 19.2-100.18 22.53s-41.54 15.21-41.24 19.19z"/>
  <path d="M52 546.59l7.6 19.26c2.5 3.11 34.78-10.79 43.23-14.12s85.66-50.76 88.6-51.92l-2.8-7.1z"/>
  <rect class="cls-1" x="181" y="486.94" width="18.84" height="9.87" rx="2.47" transform="rotate(68.48 190.425 491.855)"/>
  <path class="cls-1" d="M185.83 493.68l2.57 6.51a2.23 2.23 0 002.73 1.53l5.5-2.17a2.24 2.24 0 001-3l-2.63-6.49z"/>
  <path class="cls-2" transform="rotate(-21.52 81.047 535.212)" d="M66.84 511.72H95.2v46.84H66.84z"/>
  <path class="cls-1" transform="rotate(-21.52 85.332 546.086)" d="M71.14 534.32H99.5v23.42H71.14z"/>
  <path d="M219.6 516a3.35 3.35 0 013.52.55c4 3.61 8.14 10.15 11.51 18l9 21.17c.41.94.69 3.93-1.84 5l-15.37 6.56-15.36 6.56c-2.53 1.07-4.49-1.2-4.9-2.15l-9-21.16c-3.77-8.84-5.22-15.65-4.92-20.89a3.38 3.38 0 012-2.89z"/>
  <path d="M225.14 564.29a3.34 3.34 0 004.4 1.77l12.28-5.24c2.53-1.08 2.25-4.07 1.84-5l-9-21.17c-2.93-6.88-7.33-14.15-11.46-18a3.34 3.34 0 00-3.59-.62l-9.61 4.13a3.36 3.36 0 00-1.77 4.4z"/>
  <rect class="cls-1" x="188.13" y="514.27" width="34.81" height="8.14" rx="1.35" transform="rotate(-23.11 205.5 518.298)"/>
  <path class="cls-1" d="M207.13 522.09l14.59-6.23a1.59 1.59 0 00.78-2.1l-1.92-4.5a1.59 1.59 0 00-2.06-.89l-14.59 6.23zm429.63-10.3c8-4 12.38-12.2 13.34-24.22S643 449.9 643 449.9l-16.88.47-16.82.48s-6.64 26-5 38 6.48 19.91 14.67 23.44 7.94 25.22 7.46 33.9-2 14.66-7.34 16.68-10.47 3-10.73 3.92l21-.59 21.07-.59c-.31-.86-5.54-1.58-10.93-3.31s-7.3-7.6-8.26-16.24-2.46-30.29 5.52-34.27zm151.67-14.74h16.27c7.12 0 7.29-10.71 7.29-10.71v-66.25c0-5.73-2-12.45-5.25-16.19s-8.14-5.23-9.84-6-3-1.5-3-3.49v-12.7H783v12.7c0 2-1.36 2.74-3 3.49s-6.61 2.3-9.83 6-5.26 10.46-5.26 16.19v66.25s.17 10.71 7.29 10.71z"/>
  <rect x="782.27" y="358.52" width="12.32" height="26.9" rx="2.79"/>
  <path d="M700.08 480.82l22 6.73c4.44 0 14.71-37.78 17.66-47.45S754.92 330.31 756 327l-8.12-2.48-8.17-2.52c-1 3.36-46.85 93.21-49.8 102.88s-15.53 46.72-11.86 49.22z"/>
  <path d="M700.08 480.82l22 6.73c4.44 0 14.71-37.78 17.66-47.45S754.92 330.31 756 327l-8.12-2.48z"/>
  <rect class="cls-1" x="737.87" y="316.82" width="20.97" height="10.98" rx="2.74" transform="rotate(16.98 748.44 322.366)"/>
  <path class="cls-1" d="M746.75 327.56l7.45 2.27a2.48 2.48 0 003.22-1.31l1.93-6.3a2.5 2.5 0 00-1.94-2.89l-7.41-2.27z"/>
  <path stroke-width="1.745" stroke="#c9e265" stroke-miterlimit="10" fill="#c9e265" d="M680.77 451.686l9.155-30.307 50.055 15.12-9.156 30.307z"/>
  <path stroke-width=".58" stroke="#c9e265" stroke-miterlimit="10" fill="#c9e265" d="M705.598 462.652l9.22-30.194 24.933 7.613-9.22 30.194z"/>
</svg>
