<svg viewBox="0 0 176 179" xmlns="http://www.w3.org/2000/svg" fill-rule="evenodd" clip-rule="evenodd" stroke-miterlimit="10"><g transform="translate(-633.64 -316.702)"><circle cx="721.45" cy="404.56" r="87.81"/><path d="M752.67 477.94l17.58-7.13c1.34-1.07 1.05-3.97 1.31-6.38.26-2.41-3.47-11.18-5.86-12.69-2.39-1.51-4.02-4.22-5.1-7.33-1.08-3.11-11.45-35.24-15.54-47.95s-8.64-15.64-13.47-17.05c-4.83-1.41-8.48-5.6-9.83-7.18-1.35-1.58-18.93-36.64-18.93-36.64-.24-.44-.98-.96-.45-1.83.53-.87-.16-2-.86-2.13-.7-.13-1.09-.8-1.34-1.41-.25-.61.47-1.31.18-2.02s-.63-1.7-2.1-1.39l-5.91 2.4-6.06 2.46c-1.27.81-.83 1.75-.54 2.46.29.71 1.29.72 1.54 1.33.25.61.43 1.36.02 1.94-.41.58-.12 1.88.86 2.13.99.25.82 1.15.95 1.62 0 0 11.8 37.41 11.93 39.48.13 2.07.43 7.62-2.05 12-2.48 4.37-3.71 9.65 2.2 21.62s20.85 42.25 22.24 45.23c1.39 2.98 2.1 6.06 1.44 8.81-.66 2.75 2.77 11.64 4.64 13.19 1.87 1.55 3.68 3.83 5.39 3.67l17.76-7.21z" fill="#fff" fill-rule="nonzero" stroke="#fff" stroke-width="2"/><path d="M752.67 477.94l17.58-7.13c1.34-1.07 1.05-3.97 1.31-6.38.26-2.41-3.47-11.18-5.86-12.69-2.39-1.51-4.02-4.22-5.1-7.33-1.08-3.11-11.45-35.24-15.54-47.95s-8.64-15.64-13.47-17.05c-4.83-1.41-8.48-5.6-9.83-7.18-1.35-1.58-18.93-36.64-18.93-36.64-.24-.44-.98-.96-.45-1.83.53-.87-.16-2-.86-2.13-.7-.13-1.09-.8-1.34-1.41-.25-.61.47-1.31.18-2.02s-.63-1.7-2.1-1.39l-5.91 2.4 60.32 148.73z" fill="#fff" fill-rule="nonzero"/><path d="M692.27 346.06l11.49-4.66 14.79 28.93-16.77 6.8-9.51-31.07z" fill-rule="nonzero" stroke="#000" stroke-width=".84"/><path d="M710.21 373.71l8.34-3.38-14.79-28.93-5.71 2.32 12.16 29.99z" fill-rule="nonzero" stroke="#000" stroke-width=".84"/></g></svg>