<?xml version="1.0" encoding="utf-8"?>
<!-- Generator: Adobe Illustrator 24.2.2, SVG Export Plug-In . SVG Version: 6.00 Build 0)  -->
<svg version="1.1" id="Layer_1" xmlns="http://www.w3.org/2000/svg" xmlns:xlink="http://www.w3.org/1999/xlink" x="0px" y="0px"
	 viewBox="0 0 1920 1664" style="enable-background:new 0 0 1920 1664;" xml:space="preserve">
<path d="M960,672c79.3,0,147.2,28.2,203.5,84.5c56.3,56.3,84.5,124.2,84.5,203.5s-28.2,147.2-84.5,203.5
	c-56.3,56.3-124.2,84.5-203.5,84.5s-147.2-28.2-203.5-84.5C700.2,1107.2,672,1039.3,672,960s28.2-147.2,84.5-203.5
	S880.7,672,960,672 M1664,256c70.7,0,131,25,181,75s75,110.3,75,181v896c0,70.7-25,131-75,181c-50,50-110.3,75-181,75H256
	c-70.7,0-131-25-181-75c-50-50-75-110.3-75-181V512c0-70.7,25-131,75-181s110.3-75,181-75h224l51-136c12.7-32.7,35.8-60.8,69.5-84.5
	S668.7,0,704,0h512c35.3,0,69.8,11.8,103.5,35.5s56.8,51.8,69.5,84.5l51,136H1664 M960,1408c123.3,0,228.8-43.8,316.5-131.5
	S1408,1083.3,1408,960s-43.8-228.8-131.5-316.5S1083.3,512,960,512s-228.8,43.8-316.5,131.5S512,836.7,512,960
	s43.8,228.8,131.5,316.5S836.7,1408,960,1408"/>
</svg>
