<svg xmlns="http://www.w3.org/2000/svg" width="39.38" height="52.04" viewBox="0 0 10.419 13.769">
  <path class="st0" d="M0 11.74c0 1.09 1 2.029 2.09 2.029H8.3c1.09 0 2.12-.923 2.12-2.03V3.213H8.36v-.06A3.149 3.149 0 005.21 0a3.147 3.147 0 00-3.152 3.151v.061H0zM5.21 1.154c1.106 0 2 .894 2 2v.06H3.228v-.06c-.016-1.106.878-2 1.982-2zm-2.088 5.71a1.4 1.4 0 011-.424c.379 0 .741.15 1.016.423l.077.077.077-.077a1.41 1.41 0 011.016-.423c.378 0 .74.15 1 .423.272.273.423.622.423 1.016 0 .379-.15.741-.423 1l-1.94 1.94a.194.194 0 01-.15.06c-.061 0-.106-.028-.151-.06l-1.94-1.94a1.4 1.4 0 01-.423-1 1.36 1.36 0 01.418-1.016z" fill="#9bdbcd"/>
</svg>
