<svg xmlns="http://www.w3.org/2000/svg" width="42.401" height="43.46" viewBox="0 0 11.219 11.499">
  <path fill="#9bdbcd" class="st0" d="M9.72 1.833c.267-.154.502-.3.745-.421.376-.188.73 0 .739.42a106.53 106.53 0 010 3.562c-.008.44-.376.632-.762.415A171.592 171.592 0 017.42 4.07c-.402-.239-.402-.636-.016-.892.21-.138.432-.257.686-.41a2.483 2.483 0 00-1.194-.768c-.442-.127-.907-.174-1.391-.264V.007c1.7-.082 3.077.558 4.214 1.826zM2.652 4.267c-.248.984-.05 1.841.48 2.675-.52.301-1.022.592-1.557.905C.917 6.823.636 5.737.761 4.553.787 4.29.8 4.01.909 3.78c.182-.389.024-.564-.307-.706-.839-.363-.76-.887-.019-1.268C1.478 1.348 2.33.81 3.203.31c.526-.302.875-.114.883.484.014 1.114.014 2.23 0 3.344-.005.527-.367.722-.828.471-.188-.098-.373-.206-.606-.341zM6.573 8.217c1.014-.262 1.696-.86 2.186-1.749.521.3 1.024.587 1.553.892-.82 1.521-2.069 2.389-3.739 2.725 0 .291.008.577-.002.863-.016.476-.376.69-.791.455a186.19 186.19 0 01-2.99-1.725c-.41-.241-.408-.673.003-.916a186.19 186.19 0 012.99-1.725c.417-.238.772-.024.79.452.006.23 0 .458 0 .728z"/>
</svg>
