<svg xmlns="http://www.w3.org/2000/svg" width="44.005" height="50.801" viewBox="0 0 11.643 13.441">
  <path fill="#9bdbcd" class="st0" d="M.477 6.084l.722-.833a1.504 1.504 0 011.13-.524h4.765l-.312 1.54c-.085.397.368.677.693.439l3.987-2.955a.436.436 0 000-.707L7.475.09c-.325-.241-.778.042-.693.439l.312 1.54h-4.85A2.237 2.237 0 00.011 4.3v1.598c0 .257.31.368.466.185zM11.166 7.357l-.722.833a1.504 1.504 0 01-1.13.524H4.549l.312-1.54c.085-.397-.368-.677-.693-.439L.18 9.691a.436.436 0 000 .706l3.974 2.955c.325.241.777-.042.693-.439l-.297-1.54h4.85a2.237 2.237 0 002.233-2.233V7.542c-.002-.257-.312-.37-.468-.185z"/>
</svg>
