<?xml version="1.0" encoding="utf-8"?>
<!-- Generator: Adobe Illustrator 24.2.2, SVG Export Plug-In . SVG Version: 6.00 Build 0)  -->
<svg version="1.1"
	 id="svg2989" xmlns:cc="http://creativecommons.org/ns#" xmlns:dc="http://purl.org/dc/elements/1.1/" xmlns:inkscape="http://www.inkscape.org/namespaces/inkscape" xmlns:rdf="http://www.w3.org/1999/02/22-rdf-syntax-ns#" xmlns:sodipodi="http://sodipodi.sourceforge.net/DTD/sodipodi-0.dtd" xmlns:svg="http://www.w3.org/2000/svg"
	 xmlns="http://www.w3.org/2000/svg" xmlns:xlink="http://www.w3.org/1999/xlink" x="0px" y="0px" viewBox="0 0 576.6 494.2"
	 style="enable-background:new 0 0 576.6 494.2;" xml:space="preserve">
<sodipodi:namedview  bordercolor="#666666" borderopacity="1" gridtolerance="10" guidetolerance="10" id="namedview2995" inkscape:current-layer="svg2989" inkscape:cx="896" inkscape:cy="896" inkscape:pageopacity="0" inkscape:pageshadow="2" inkscape:window-height="480" inkscape:window-maximized="0" inkscape:window-width="640" inkscape:window-x="0" inkscape:window-y="25" inkscape:zoom="0.13169643" objecttolerance="10" pagecolor="#ffffff" showgrid="false">
	</sodipodi:namedview>
<path id="path2993" inkscape:connector-curvature="0" d="M576.6,205.9c0,37.3-12.9,71.8-38.6,103.4s-60.7,56.6-104.9,75
	c-44.2,18.3-92.5,27.5-144.8,27.5c-15,0-30.6-0.9-46.7-2.6c-42.5,37.5-91.8,63.5-148,77.9c-10.5,3-22.7,5.4-36.7,7.1h-1.6
	c-3.2,0-6.1-1.1-8.7-3.4c-2.6-2.3-4.3-5.2-5.1-8.8v-0.3c-0.6-0.9-0.7-2.1-0.2-3.9c0.5-1.7,0.8-2.8,0.6-3.2c-0.1-0.4,0.4-1.4,1.4-3.1
	l1.9-2.9c0,0,0.8-0.9,2.3-2.7c1.5-1.8,2.4-2.8,2.6-2.9c1.5-1.7,4.8-5.4,10-11.1c5.1-5.7,8.8-9.8,11.1-12.2c2.3-2.5,5.6-6.7,10-12.7
	s7.9-11.5,10.5-16.4s5.5-11.3,8.7-19c3.2-7.7,6-15.9,8.4-24.5c-33.7-19.1-60.2-42.7-79.6-70.8C9.7,268.2,0,238.1,0,205.9
	c0-37.3,12.9-71.8,38.6-103.4s60.7-56.6,104.9-75S236,0,288.3,0s100.6,9.2,144.8,27.5s79.2,43.3,104.9,75S576.6,168.6,576.6,205.9z"
	/>
</svg>
