<svg xmlns="http://www.w3.org/2000/svg" width="44.95" height="54.75" viewBox="0 0 11.893 14.486">
  <path fill="#9bdbcd" class="st0" d="M.992 12.382c0 1.16.945 2.104 2.104 2.104h5.717a2.107 2.107 0 002.104-2.104v-7.82H.99v7.82zm2.837-.275c-.061 0-.093-.06-.061-.106l.595-1.02c.016-.017.032-.033.06-.033h1.099l-.183.167a.544.544 0 00-.182.413c0 .153.06.304.182.413l.183.166zm5.244-1.05l-.228.397a1.292 1.292 0 01-1.127.656h-.855v.304a.18.18 0 01-.304.138l-.992-.884a.193.193 0 010-.275l.992-.884a.183.183 0 01.304.138v.304h2.135c.061-.003.106.058.075.106zM8.035 9.012l.84 1.463c.03.045 0 .106-.062.106H7.64c-.032 0-.045-.016-.061-.032l-.548-.945.243.077a.426.426 0 00.244.016.59.59 0 00.473-.458zM5.337 6.45h.457c.474 0 .9.243 1.127.656l.426.733.26-.154a.188.188 0 01.275.199l-.26 1.296c-.015.106-.137.167-.243.138l-1.264-.413c-.154-.045-.167-.26-.032-.336l.26-.154-1.067-1.844c-.013-.06.016-.121.06-.121zm-.395.457c.032-.045.093-.045.122 0L5.66 7.93c.016.015.016.045 0 .076l-.547.945-.045-.228a.568.568 0 00-.474-.457c-.092-.016-.167 0-.26.015l-.227.077zM2.99 10.28l.426-.733-.26-.153c-.137-.077-.121-.289.032-.336l1.265-.413a.195.195 0 01.243.138l.276 1.296c.031.153-.138.275-.276.198l-.259-.153-1.066 1.844c-.032.045-.093.045-.122 0l-.227-.397a1.222 1.222 0 01-.032-1.29zM11.451 2.135H8.356v-.518C8.356.717 7.623 0 6.739 0H5.154c-.9 0-1.617.733-1.617 1.617v.518H.442A.443.443 0 000 2.577v.701c0 .244.198.442.442.442h11.01a.443.443 0 00.441-.442v-.701a.44.44 0 00-.442-.442zm-6.739-.518a.46.46 0 01.458-.458h1.585a.46.46 0 01.458.458v.518h-2.5z"/>
</svg>
