<svg viewBox="0 0 176 176" xmlns="http://www.w3.org/2000/svg" fill-rule="evenodd" clip-rule="evenodd" stroke-linejoin="round" stroke-miterlimit="2"><g transform="translate(-37.57 -312.86)"><circle cx="125.38" cy="400.67" r="87.81"/><path d="M154.37 401.66l-62.89 54.86c-4.86 2.93-3.07-2.41-3.07-2.41 7.21-13.92 14.46-27.89 21.88-42.2.58-1.12-.23-2.46-1.49-2.46H91.51c-1.24 0-2.03-1.31-1.47-2.41 10.5-20.26 21-40.53 31.59-60.76.51-.98 1.74-2.24 2.65-2.25 12.07-.14 24.14-.11 36.7-.1 1.26 0 2.08 1.34 1.5 2.46L137 395.56c-.58 1.12.23 2.46 1.5 2.46h14.53c-.02.01 5.27.21 1.34 3.64z" fill="#fff" fill-rule="nonzero"/></g></svg>