<?xml version="1.0" encoding="utf-8"?>
<!-- Generator: Adobe Illustrator 24.2.2, SVG Export Plug-In . SVG Version: 6.00 Build 0)  -->
<svg version="1.1"
	 id="svg2" xmlns:cc="http://creativecommons.org/ns#" xmlns:dc="http://purl.org/dc/elements/1.1/" xmlns:inkscape="http://www.inkscape.org/namespaces/inkscape" xmlns:rdf="http://www.w3.org/1999/02/22-rdf-syntax-ns#" xmlns:sodipodi="http://sodipodi.sourceforge.net/DTD/sodipodi-0.dtd" xmlns:svg="http://www.w3.org/2000/svg"
	 xmlns="http://www.w3.org/2000/svg" xmlns:xlink="http://www.w3.org/1999/xlink" x="0px" y="0px" viewBox="0 0 576.6 370.7"
	 style="enable-background:new 0 0 576.6 370.7;" xml:space="preserve">
<sodipodi:namedview  bordercolor="#666666" borderopacity="1" gridtolerance="10" guidetolerance="10" id="namedview8" inkscape:current-layer="svg2" inkscape:cx="896" inkscape:cy="896" inkscape:pageopacity="0" inkscape:pageshadow="2" inkscape:window-height="480" inkscape:window-maximized="0" inkscape:window-width="640" inkscape:window-x="0" inkscape:window-y="25" inkscape:zoom="0.13169643" objecttolerance="10" pagecolor="#ffffff" showgrid="false">
	</sodipodi:namedview>
<g id="g4" transform="matrix(1,0,0,-1,30.372881,1259.8983)">
	<path id="path6" inkscape:connector-curvature="0" d="M505.1,1074.6c-32.6,50.6-73.5,88.5-122.6,113.6
		c13.1-22.3,19.6-46.4,19.6-72.4c0-39.7-14.1-73.6-42.3-101.8c-28.2-28.2-62.2-42.3-101.8-42.3s-73.6,14.1-101.8,42.3
		s-42.3,62.2-42.3,101.8c0,26,6.5,50.1,19.6,72.4c-49.1-25.1-90-63-122.6-113.6c28.5-44,64.3-79,107.3-105.1s89.6-39.1,139.8-39.1
		s96.8,13,139.8,39.1S476.5,1030.6,505.1,1074.6z M273.4,1198.1c0,4.3-1.5,7.9-4.5,10.9c-3,3-6.6,4.5-10.9,4.5
		c-26.8,0-49.8-9.6-69-28.8s-28.8-42.2-28.8-69c0-4.3,1.5-7.9,4.5-10.9s6.6-4.5,10.9-4.5s7.9,1.5,10.9,4.5s4.5,6.6,4.5,10.9
		c0,18.4,6.5,34.2,19.6,47.3s28.9,19.6,47.3,19.6c4.3,0,7.9,1.5,10.9,4.5C271.9,1190.2,273.4,1193.8,273.4,1198.1z M546.2,1074.6
		c0-7.3-2.1-14.7-6.4-22.2c-30-49.3-70.4-88.9-121.1-118.6s-104.3-44.6-160.7-44.6s-110,14.9-160.7,44.7
		c-50.7,29.8-91.1,69.3-121.1,118.4c-4.3,7.5-6.4,14.9-6.4,22.2s2.1,14.7,6.4,22.2c30,49.1,70.4,88.6,121.1,118.4
		c50.7,29.8,104.3,44.7,160.7,44.7s110-14.9,160.7-44.7c50.7-29.8,91.1-69.3,121.1-118.4C544.1,1089.3,546.2,1081.9,546.2,1074.6z"
		/>
</g>
</svg>
