<svg viewBox="0 0 176 176" xmlns="http://www.w3.org/2000/svg" fill-rule="evenodd" clip-rule="evenodd" stroke-linejoin="round" stroke-miterlimit="2"><g transform="translate(-627.02 -119.28)"><circle cx="714.83" cy="207.09" r="87.81"/><path d="M769.34 204.88c-.27-.26-.55-.49-.81-.71l-2.91-2.41c-3.41-2.83-6.93-5.76-10.41-8.63-.04-.04-.07-.06-.08-.07 0-.02-.01-.07-.01-.16.02-7.72.02-15.56.01-23.15v-2.77c0-2.87-1.46-4.32-4.33-4.32-3.49 0-7.62-.01-11.73 0-2.76.01-4.22 1.47-4.23 4.23-.01 2.06-.01 4.12 0 6.18v3.1l-.05-.04c-4.52-3.77-9.04-7.54-13.56-11.32-2.05-1.72-4.5-2.48-7.28-2.28-2.66.2-4.62 1.56-6.35 3.01-5.82 4.87-11.75 9.8-17.49 14.57l-12.64 10.52c-5.51 4.59-11.02 9.17-16.52 13.76-2.2 1.84-2.39 3.89-.55 6.1 1.12 1.34 2.24 2.68 3.37 4.02 1.72 2.05 3.71 2.31 5.76.76.01 6.4.01 12.8.01 19.2v10.16c0 4.33 2.7 7.03 7.03 7.03 8.31.01 16.62 0 24.94 0H704c.28 0 .55-.02.83-.04.13-.01.26-.02.4-.02l1.46-.08v-28.97h16.41v28.93l1.43.11c.13.01.24.02.34.03.23.02.45.04.69.04h15.92c3.97 0 7.96 0 11.91-.01 4.08-.01 6.83-2.79 6.83-6.92v-11.4c0-6.02 0-12.03.01-18.05 1.84 1.42 3.87 1.3 5.34-.33 1.34-1.49 2.67-3.08 4.08-4.86 1.26-1.58 1.13-3.83-.31-5.21z" fill="#fff" fill-rule="nonzero"/></g></svg>