<svg viewBox="0 0 176 176" xmlns="http://www.w3.org/2000/svg" fill-rule="evenodd" clip-rule="evenodd" stroke-linejoin="round" stroke-miterlimit="2"><circle cx="127.06" cy="203.67" r="87.81" transform="translate(-39.25 -115.86)"/><g fill-rule="nonzero"><path d="M138.15 120.51H37.47c-6.25 0-11.31-5.07-11.31-11.31V52.04c0-6.25 5.07-11.31 11.31-11.31h100.68c6.25 0 11.31 5.07 11.31 11.31v57.15c0 6.26-5.06 11.32-11.31 11.32z" fill="#fff"/><path d="M132.93 113.55H42.65c-5.35 0-9.69-4.34-9.69-9.69V57.4c0-5.35 4.34-9.69 9.69-9.69h90.28c5.35 0 9.69 4.34 9.69 9.69v46.46c.01 5.35-4.33 9.69-9.69 9.69z"/><path d="M146.71 120.33H91.56c-.28 0-.42.34-.22.53.99.98 1.58 2.36 1.49 3.88-.15 2.55-2.27 4.64-4.82 4.74a5.039 5.039 0 01-5.24-5.03c0-1.38.55-2.62 1.45-3.53.21-.22.07-.58-.24-.58H28.9c-2.73 0-4.96 2.23-4.96 4.96v4.64c0 2.73 2.23 4.96 4.96 4.96h117.81c2.73 0 4.96-2.23 4.96-4.96v-4.64c0-2.74-2.23-4.97-4.96-4.97z" fill="#fff"/></g></svg>