<svg viewBox="0 0 176 176" xmlns="http://www.w3.org/2000/svg" fill-rule="evenodd" clip-rule="evenodd" stroke-linejoin="round" stroke-miterlimit="2"><g transform="translate(-240.02 -116.2)"><circle cx="327.83" cy="204.01" r="87.81"/><path d="M345.22 230.74h-34.49c-.17-2-.27-4-.53-5.97-.61-4.82-2.42-9.12-5.27-13.11-3.93-5.52-7.95-11.03-11.26-16.92-5.45-9.7-5.79-19.98-1.58-30.27 4.95-12.1 13.21-21.09 26.13-24.44 15.74-4.07 28.84 1.06 39.07 13.39 6.03 7.27 9.18 15.81 9.14 25.36-.03 7.28-2.59 13.82-6.44 19.84-2.72 4.27-5.64 8.44-8.73 12.45-4.03 5.23-5.85 11.12-6.05 17.61 0 .67.01 1.33.01 2.06zM310.4 237.62c0-1.81 1.47-3.27 3.27-3.27h28.4a3.271 3.271 0 010 6.54h-28.4c-1.8.01-3.27-1.46-3.27-3.27zM345.37 247.83c0 1.8-1.46 3.26-3.26 3.26H313.7a3.26 3.26 0 010-6.52h28.41c1.8 0 3.26 1.46 3.26 3.26zM340.36 254.74c4.18 0 4.47 6.18.3 6.56-.3.03-.61.04-.93.04-7.98.01-15.96.01-23.94 0-.28 0-.56-.01-.82-.04-4.16-.41-3.86-6.55.31-6.55h25.08v-.01zM319.6 264.94h16.51c.06 2.35-1.61 4.24-4.03 4.33-2.79.1-5.58.1-8.37 0-2.35-.09-3.9-1.78-4.11-4.33z" fill="#fff" fill-rule="nonzero"/></g></svg>