<svg xmlns="http://www.w3.org/2000/svg" width="53.22" height="70.995" viewBox="0 0 14.081 18.784">
  <g transform="translate(-262.078 4.856)">
    <path class="st6" d="M274.101-2.763a6.968 6.968 0 00-9.959 0 7.182 7.182 0 00-2.064 5.056c0 2.786 2.617 6.532 4.866 9.747.016.021.03.042.045.06l.99 1.268c.584.749 1.72.746 2.302-.008l.992-1.288c2.254-3.22 4.887-6.983 4.887-9.777a7.173 7.173 0 00-2.059-5.058z" clip-rule="evenodd" fill="#000" fill-rule="evenodd"/>
    <circle class="st5" cx="269.003" cy="1.824" r="2.532" clip-rule="evenodd" fill="#fff" fill-rule="evenodd"/>
    <path class="st6" d="M274.101-2.763a6.968 6.968 0 00-9.959 0 7.182 7.182 0 00-2.064 5.056c0 2.786 2.617 6.532 4.866 9.747.016.021.03.042.045.06l.99 1.268c.584.749 1.72.746 2.302-.008l.992-1.288c2.254-3.22 4.887-6.983 4.887-9.777a7.173 7.173 0 00-2.059-5.058z" clip-rule="evenodd" fill="#000" fill-rule="evenodd"/>
    <circle class="st5" cx="269.003" cy="1.824" r="2.532" clip-rule="evenodd" fill="#fff" fill-rule="evenodd"/>
  </g>
</svg>
