<svg viewBox="0 0 176 176" xmlns="http://www.w3.org/2000/svg" fill-rule="evenodd" clip-rule="evenodd" stroke-linejoin="round" stroke-miterlimit="2"><g transform="translate(-240.64 -316.9)"><path d="M371.15 404.6c0 20.28.01 40.57 0 60.85 0 4.57-1.82 8.16-6.05 10.14-1.45.68-3.18 1.06-4.79 1.07-20.06.07-40.12.06-60.19.04-6.24-.01-10.72-4.47-10.88-10.73-.01-.24 0-.47 0-.71V343.68c0-3.72 1.16-6.89 4.17-9.23 2.05-1.59 4.41-2.21 6.97-2.21 12.87.01 25.75 0 38.62 0h20.85c6.8.01 11.29 4.48 11.3 11.27v61.09zm-73.89-54.54v93.2h65.88v-93.2h-65.88zm33.05-11.42h-14.22c-1.64 0-2.28.72-2.26 2.55.01 1.77.65 2.51 2.21 2.52 9.44.01 18.88.01 28.32 0 1.55 0 2.2-.75 2.2-2.52.01-1.8-.62-2.54-2.15-2.54-4.7-.02-9.4-.01-14.1-.01zm-.17 114.29c-3.71.03-6.69 3.04-6.66 6.71.04 3.67 3.07 6.66 6.75 6.64 3.67-.02 6.7-3.09 6.65-6.73a6.654 6.654 0 00-6.74-6.62z" fill-rule="nonzero"/><circle cx="328.45" cy="404.71" r="87.81"/><path d="M363.71 404.82v52.39c0 3.93-1.57 7.02-5.21 8.73-1.25.58-2.74.91-4.12.92-17.27.06-34.54.05-51.82.03-5.37-.01-9.23-3.85-9.37-9.24-.01-.2 0-.41 0-.61V352.37c0-3.2 1-5.93 3.59-7.94 1.76-1.37 3.79-1.9 6-1.9 11.08.01 22.17 0 33.25 0h17.95c5.85 0 9.72 3.86 9.73 9.7.01 17.53 0 35.06 0 52.59zm-63.61-46.95v80.24h56.72v-80.24H300.1zm28.45-9.84h-12.24c-1.42 0-1.96.62-1.95 2.2.01 1.52.56 2.17 1.91 2.17h24.38c1.34 0 1.89-.65 1.9-2.17.01-1.55-.53-2.19-1.85-2.19-4.05-.01-8.1-.01-12.15-.01zm-.14 98.4c-3.19.03-5.76 2.62-5.73 5.78.03 3.16 2.65 5.73 5.82 5.71 3.16-.02 5.77-2.66 5.73-5.8a5.766 5.766 0 00-5.82-5.69z" fill="#fff" fill-rule="nonzero"/></g></svg>