<?xml version="1.0" encoding="utf-8"?>
<!-- Generator: Adobe Illustrator 24.2.2, SVG Export Plug-In . SVG Version: 6.00 Build 0)  -->
<svg version="1.1" id="Layer_1" xmlns="http://www.w3.org/2000/svg" xmlns:xlink="http://www.w3.org/1999/xlink" x="0px" y="0px"
	 viewBox="0 0 9 9" style="enable-background:new 0 0 9 9;" xml:space="preserve">
<style type="text/css">
	.st0{fill:#EFEFEF;}
</style>
<g id="Icons">
	<path id="search" class="st0" d="M8.9,8L6.5,5.6c0,0-0.1-0.1-0.2-0.1C6.7,4.9,7,4.2,7,3.5C7,1.6,5.4,0,3.5,0C1.6,0,0,1.6,0,3.5
		C0,5.4,1.6,7,3.5,7c0.7,0,1.4-0.2,2-0.6c0,0.1,0.1,0.1,0.1,0.2L8,8.9C8.2,9,8.5,9,8.8,8.8S9,8.1,8.9,8z M3.5,5.7
		c-1.2,0-2.2-1-2.2-2.2c0-1.2,1-2.2,2.2-2.2c1.2,0,2.2,1,2.2,2.2C5.7,4.7,4.7,5.7,3.5,5.7z"/>
</g>
<g id="Guides">
</g>
</svg>
