<svg xmlns="http://www.w3.org/2000/svg" width="44.82" height="45.287" viewBox="0 0 11.859 11.982">
  <path class="st0" d="M5.855 1.724c-1.05-.275-1.902.154-2.429.561-1.077.831-1.799 2.34-1.799 3.752 0 1.159.839 2.413.847 2.424l.018.031c.03.059.77 1.458 2.842 1.813l.016.003c.016.003.172.029.582.029a4.306 4.306 0 004.302-4.302c-.003-2.614-2.384-3.786-4.379-4.31zM4.604 7.14a.425.425 0 01-.424-.423.425.425 0 01.847 0c0 .236-.19.423-.423.423zm.423-2.005a.425.425 0 01-.423-.423c0-.233.19-.424.423-.424a.423.423 0 110 .847zM6.84 7.622a.425.425 0 01-.423-.423c0-.233.19-.424.423-.424.233 0 .424.19.424.424a.421.421 0 01-.424.423zm.426-2.006a.425.425 0 01-.423-.423c0-.233.19-.423.423-.423.233 0 .424.19.424.423 0 .233-.19.423-.424.423z" fill="#9bdbcd"/>
  <path class="st0" d="M5.93.124C2.761-.704 0 2.777 0 6.053c0 1.632 1.156 3.339 1.156 3.339s1.027 2.043 3.94 2.543c0 0 .198.047.833.047a5.93 5.93 0 005.93-5.929C11.856 2.777 9.237.989 5.929.123zm0 10.81c-.456 0-.646-.031-.704-.042-2.27-.391-3.152-1.915-3.255-2.111-.106-.162-.94-1.458-.94-2.741 0-1.612.797-3.27 2.03-4.22.895-.69 1.94-.929 2.942-.667 3.154.825 4.821 2.513 4.821 4.887a4.902 4.902 0 01-4.895 4.895z" fill="#9bdbcd"/>
</svg>
