<svg xmlns="http://www.w3.org/2000/svg" width="54.15" height="45.965" viewBox="0 0 14.327 12.162">
  <path class="st0" d="M14.248 2.38c-.863-.603-1.733-1.198-2.585-1.814a2.213 2.213 0 00-1.114-.413 15.62 15.62 0 01-.614-.077C9.361 0 8.795-.046 8.234.206c-.291.13-.622.19-.942.227-.609.072-1.19-.08-1.744-.325a1.375 1.375 0 00-.77-.09c-.256.034-.513.058-.77.08C3.482.14 2.98.252 2.54.57 1.738 1.153.931 1.73.13 2.309c-.045.032-.085.069-.13.103l.077.183c.323.738.65 1.474.965 2.212.053.122.106.137.22.098.503-.17 1.008-.334 1.513-.5.061-.021.125-.035.21-.056.005.098.013.172.013.249 0 2.23-.003 4.46-.003 6.691 0 .397 0 .397.386.5 1.014.275 2.056.344 3.096.365.799.016 1.603.01 2.397-.063.717-.066 1.424-.236 2.133-.363.11-.02.166-.095.169-.209l.003-.185-.003-4.17V4.518c0-.058.01-.119.016-.193.066.019.116.03.164.045.558.183 1.119.36 1.675.553.14.048.203.035.264-.11.159-.392.336-.776.506-1.165.174-.402.349-.802.526-1.207-.032-.02-.053-.045-.08-.06zM8.586.929c-.28.355-.67.527-1.1.603-.654.117-1.252-.016-1.766-.452-.24-.204-.373-.474-.375-.836C6.498.798 7.639.843 8.8.238a.956.956 0 01-.214.69z" fill="#9bdbcd"/>
</svg>
