<svg xmlns="http://www.w3.org/2000/svg" width="91" height="91" viewBox="0 0 24.077 24.077">
  <g transform="translate(-93.795 -136.128)">
    <circle class="st2" cx="105.833" cy="148.167" r="12.039" fill="#48767f"/>
    <path class="st0" d="M101.666 142.976s.884-1.347 1.008-1.583c.125-.235.297-.674.805-.804s.785-.019 1.344.251c.558.27 1.293.405 1.47.384l.011.587-2.481-.296-1.818 1.881s-.379-.31-.339-.42z" fill="#87ddcd"/>
    <path class="st0" d="M103.386 140.822a.09.09 0 01-.08-.05c-.333-.696-.238-.797-.206-.831a.602.602 0 00.037-.45c-.042-.111-.132-.175-.272-.19a.33.33 0 00-.268.068c-.156.14-.15.437-.15.44a.09.09 0 01-.085.09h-.003a.088.088 0 01-.087-.085c0-.016-.005-.376.21-.572a.493.493 0 01.404-.113c.264.031.373.185.418.31.087.237 0 .541-.077.623-.005.048.098.347.236.638a.087.087 0 01-.043.117.117.117 0 01-.034.005z" fill="#87ddcd"/>
    <path class="st3" d="M104.373 157.112l-2.757-8.13-.37.725s-.05.19-.347.087c-.296-.103-2.815-.643-3.167-.654-.352-.01.082-.531.301-.939.217-.407 1.149-2.717 1.188-2.881.04-.162 1.916-1.93 2.024-2.016.106-.088.37-.548.49-.601 0 0 1.278 1.728 2.98.995 1.7-.733 1.285-2.564 1.285-2.564s.13-.071.333-.032c.204.04.657.103.93.117.272.013 1.401.106 1.753.09.352-.016.508.026.643.098.135.071.876.489 1.318.767.442.28.992.611 1.368.659.375.05.97.256.965.325-.005.066-1 1.254-1.066 1.426-.066.172-.828 1.453-.936 1.426-.109-.026-.919-.383-.919-.383s.903 2.537.995 2.786c.093.251 1.717 4.44 1.728 4.651.013.214.275.675.153.85-.121.174-1.41.814-2.156 1.058-.746.243-1.495.159-1.82.354-.326.196-.228.28-.82.477-.593.195-1.016.232-1.768.608-.746.381-2.26.667-2.328.701z" fill="#fff"/>
  </g>
</svg>
