<svg viewBox="0 0 176 176" xmlns="http://www.w3.org/2000/svg" fill-rule="evenodd" clip-rule="evenodd" stroke-linejoin="round" stroke-miterlimit="2"><g transform="translate(-440.33 -316.75)"><circle cx="528.14" cy="404.56" r="87.81"/><path d="M540.75 374.16c5.08 0 9.66.14 14.21-.05 2.95-.12 4.42.99 5.37 3.8 6.8 20 13.76 39.94 20.64 59.91 1.4 4.05.42 5.42-3.89 5.43-25.63.02-51.26.01-76.88.01-7.05 0-14.11.02-21.16-.01-4.12-.02-5.11-1.37-3.78-5.2 6.96-20.06 14.01-40.1 20.89-60.19.98-2.88 2.55-3.83 5.43-3.73 4.57.16 9.16.04 14.43.04-4.05-4.72-6.62-9.58-6.04-15.48.58-5.8 3.17-10.52 8.07-13.83 7.34-4.96 16.97-3.94 23.23 2.41 7.08 7.16 7.02 16.17-.52 26.89zm-4.84-14.12c-.02-4.29-3.66-7.84-7.93-7.74-4.23.1-7.59 3.52-7.57 7.7.02 4.32 3.59 7.8 7.92 7.71 4.23-.09 7.6-3.5 7.58-7.67z" fill="#fff" fill-rule="nonzero"/></g></svg>