<svg xmlns="http://www.w3.org/2000/svg" width="158.43" height="211.316" viewBox="0 0 41.918 55.911">
  <g transform="translate(-84.874 -120.211)">
    <path class="st4" d="M120.654 126.442c-3.792-3.85-9.033-6.23-14.82-6.23-5.786 0-11.027 2.38-14.819 6.23a21.382 21.382 0 00-6.14 15.05c0 8.292 7.789 19.447 14.483 29.009.045.063.087.121.135.182l2.947 3.773c1.744 2.23 5.122 2.22 6.847-.024l2.956-3.839c6.707-9.583 14.55-20.785 14.55-29.101a21.39 21.39 0 00-6.139-15.05z" clip-rule="evenodd" fill="#87ddcd" fill-rule="evenodd"/>
    <circle class="st5" cx="105.483" cy="140.097" r="7.541" clip-rule="evenodd" fill="#fff" fill-rule="evenodd"/>
    <path class="st4" d="M120.654 126.442c-3.792-3.85-9.033-6.23-14.82-6.23-5.786 0-11.027 2.38-14.819 6.23a21.382 21.382 0 00-6.14 15.05c0 8.292 7.789 19.447 14.483 29.009.045.063.087.121.135.182l2.947 3.773c1.744 2.23 5.122 2.22 6.847-.024l2.956-3.839c6.707-9.583 14.55-20.785 14.55-29.101a21.39 21.39 0 00-6.139-15.05z" clip-rule="evenodd" fill="#87ddcd" fill-rule="evenodd"/>
    <circle class="st5" cx="105.483" cy="140.097" r="7.541" clip-rule="evenodd" fill="#fff" fill-rule="evenodd"/>
  </g>
</svg>
